<?xml version="1.0" encoding="UTF-8" standalone="no"?><svg xmlns="http://www.w3.org/2000/svg" xmlns:xlink="http://www.w3.org/1999/xlink" contentScriptType="text/ecmascript" fill="#000000" width="2766.4" zoomAndPan="magnify" contentStyleType="text/css" viewBox="313.8 335.0 2766.4 1830.0" height="1830" preserveAspectRatio="xMidYMid meet" version="1"><g><g id="change1_1"><path fill="#e2eaff" d="M 2781.308594 1602.171875 L 1224.019531 1602.171875 L 1224.019531 731.558594 C 1224.019531 699.800781 1249.769531 674.050781 1281.539062 674.050781 L 2723.800781 674.050781 C 2755.558594 674.050781 2781.308594 699.800781 2781.308594 731.558594 L 2781.308594 1602.171875"/></g><g id="change2_1"><path d="M 1279.421875 1546.820312 L 2725.921875 1546.820312 L 2725.921875 732.949219 C 2725.921875 730.988281 2724.328125 729.398438 2722.371094 729.398438 L 1282.96875 729.398438 C 1281.011719 729.398438 1279.421875 730.988281 1279.421875 732.949219 Z M 2728.121094 1551.230469 L 1277.210938 1551.230469 C 1276 1551.230469 1275.011719 1550.238281 1275.011719 1549.019531 L 1275.011719 732.949219 C 1275.011719 728.558594 1278.578125 724.988281 1282.96875 724.988281 L 2722.371094 724.988281 C 2726.761719 724.988281 2730.328125 728.558594 2730.328125 732.949219 L 2730.328125 1549.019531 C 2730.328125 1550.238281 2729.339844 1551.230469 2728.121094 1551.230469"/></g><g id="change2_2"><path d="M 1273.589844 1672.050781 C 1245.039062 1672.050781 1221.820312 1648.851562 1221.820312 1620.320312 C 1221.820312 1619.109375 1222.800781 1618.121094 1224.019531 1618.121094 C 1225.238281 1618.121094 1226.230469 1619.109375 1226.230469 1620.320312 C 1226.230469 1646.421875 1247.46875 1667.640625 1273.589844 1667.640625 C 1274.808594 1667.640625 1275.789062 1668.628906 1275.789062 1669.851562 C 1275.789062 1671.070312 1274.808594 1672.050781 1273.589844 1672.050781"/></g><g id="change1_2"><path fill="#e2eaff" d="M 2238.179688 1820.210938 L 1767.160156 1820.210938 C 1740.238281 1820.210938 1718.410156 1798.378906 1718.410156 1771.460938 L 1718.410156 1669.851562 L 2286.929688 1669.851562 L 2286.929688 1771.460938 C 2286.929688 1798.378906 2265.101562 1820.210938 2238.179688 1820.210938"/></g><g id="change3_1"><path fill="#ffffff" d="M 2620.621094 1509.679688 L 1678.378906 1509.679688 L 1678.378906 337.199219 L 2324.019531 337.199219 L 2620.621094 633.671875 L 2620.621094 1509.679688"/></g><g id="change2_3"><path d="M 1680.589844 1507.46875 L 2618.410156 1507.46875 L 2618.410156 634.589844 L 2323.101562 339.410156 L 1680.589844 339.410156 Z M 2620.621094 1511.878906 L 1678.378906 1511.878906 C 1677.171875 1511.878906 1676.179688 1510.898438 1676.179688 1509.679688 L 1676.179688 337.210938 C 1676.179688 335.988281 1677.171875 335 1678.378906 335 L 2324.019531 335 C 2324.601562 335 2325.160156 335.230469 2325.578125 335.648438 L 2622.171875 632.109375 C 2622.589844 632.53125 2622.820312 633.089844 2622.820312 633.671875 L 2622.820312 1509.679688 C 2622.820312 1510.898438 2621.828125 1511.878906 2620.621094 1511.878906"/></g><g id="change1_3"><path fill="#e2eaff" d="M 2413.910156 518.25 L 1889.761719 518.25 C 1874.289062 518.25 1861.738281 505.699219 1861.738281 490.230469 C 1861.738281 474.761719 1874.289062 462.210938 1889.761719 462.210938 L 2413.910156 462.210938 L 2413.910156 518.25"/></g><g id="change3_2"><path fill="#ffffff" d="M 2620.230469 634.089844 L 2325.179688 634.148438 L 2325.179688 338.160156 Z M 2620.230469 634.089844"/></g><g id="change2_4"><path d="M 2327.378906 343.5 L 2327.378906 631.949219 L 2614.921875 631.890625 Z M 2325.179688 636.359375 C 2324.589844 636.359375 2324.03125 636.128906 2323.621094 635.710938 C 2323.210938 635.300781 2322.96875 634.738281 2322.96875 634.148438 L 2322.96875 338.160156 C 2322.96875 337.269531 2323.511719 336.46875 2324.339844 336.128906 C 2325.160156 335.78125 2326.109375 335.96875 2326.738281 336.609375 L 2621.800781 632.539062 C 2622.421875 633.171875 2622.609375 634.109375 2622.269531 634.941406 C 2621.929688 635.761719 2621.128906 636.300781 2620.230469 636.300781 L 2325.179688 636.359375"/></g><g id="change2_5"><path d="M 2468.550781 716.058594 L 2234.230469 716.058594 C 2233.011719 716.058594 2232.019531 715.078125 2232.019531 713.859375 C 2232.019531 712.640625 2233.011719 711.648438 2234.230469 711.648438 L 2468.550781 711.648438 C 2469.769531 711.648438 2470.761719 712.640625 2470.761719 713.859375 C 2470.761719 715.078125 2469.769531 716.058594 2468.550781 716.058594"/></g><g id="change2_6"><path d="M 2168.019531 716.058594 L 1884.808594 716.058594 C 1883.589844 716.058594 1882.601562 715.078125 1882.601562 713.859375 C 1882.601562 712.640625 1883.589844 711.648438 1884.808594 711.648438 L 2168.019531 711.648438 C 2169.238281 711.648438 2170.230469 712.640625 2170.230469 713.859375 C 2170.230469 715.078125 2169.238281 716.058594 2168.019531 716.058594"/></g><g id="change2_7"><path d="M 2468.550781 782.21875 L 2350.699219 782.21875 C 2349.480469 782.21875 2348.5 781.230469 2348.5 780.011719 C 2348.5 778.800781 2349.480469 777.808594 2350.699219 777.808594 L 2468.550781 777.808594 C 2469.769531 777.808594 2470.761719 778.800781 2470.761719 780.011719 C 2470.761719 781.230469 2469.769531 782.21875 2468.550781 782.21875"/></g><g id="change2_8"><path d="M 2284.488281 782.21875 L 1818.601562 782.21875 C 1817.378906 782.21875 1816.398438 781.230469 1816.398438 780.011719 C 1816.398438 778.800781 1817.378906 777.808594 1818.601562 777.808594 L 2284.488281 777.808594 C 2285.710938 777.808594 2286.699219 778.800781 2286.699219 780.011719 C 2286.699219 781.230469 2285.710938 782.21875 2284.488281 782.21875"/></g><g id="change2_9"><path d="M 2468.550781 848.371094 L 1818.601562 848.371094 C 1817.378906 848.371094 1816.398438 847.390625 1816.398438 846.171875 C 1816.398438 844.949219 1817.378906 843.960938 1818.601562 843.960938 L 2468.550781 843.960938 C 2469.769531 843.960938 2470.761719 844.949219 2470.761719 846.171875 C 2470.761719 847.390625 2469.769531 848.371094 2468.550781 848.371094"/></g><g id="change2_10"><path d="M 2402.351562 914.53125 L 1818.601562 914.53125 C 1817.378906 914.53125 1816.398438 913.539062 1816.398438 912.320312 C 1816.398438 911.109375 1817.378906 910.121094 1818.601562 910.121094 L 2402.351562 910.121094 C 2403.570312 910.121094 2404.550781 911.109375 2404.550781 912.320312 C 2404.550781 913.539062 2403.570312 914.53125 2402.351562 914.53125"/></g><g id="change2_11"><path d="M 2468.550781 1024.789062 L 2165.871094 1024.789062 C 2164.648438 1024.789062 2163.660156 1023.800781 2163.660156 1022.578125 C 2163.660156 1021.371094 2164.648438 1020.378906 2165.871094 1020.378906 L 2468.550781 1020.378906 C 2469.769531 1020.378906 2470.761719 1021.371094 2470.761719 1022.578125 C 2470.761719 1023.800781 2469.769531 1024.789062 2468.550781 1024.789062"/></g><g id="change2_12"><path d="M 2468.550781 1090.941406 L 2281.679688 1090.941406 C 2280.460938 1090.941406 2279.46875 1089.960938 2279.46875 1088.738281 C 2279.46875 1087.519531 2280.460938 1086.53125 2281.679688 1086.53125 L 2468.550781 1086.53125 C 2469.769531 1086.53125 2470.761719 1087.519531 2470.761719 1088.738281 C 2470.761719 1089.960938 2469.769531 1090.941406 2468.550781 1090.941406"/></g><g id="change2_13"><path d="M 2215.46875 1090.941406 L 1818.601562 1090.941406 C 1817.378906 1090.941406 1816.398438 1089.960938 1816.398438 1088.738281 C 1816.398438 1087.519531 1817.378906 1086.53125 1818.601562 1086.53125 L 2215.46875 1086.53125 C 2216.691406 1086.53125 2217.679688 1087.519531 2217.679688 1088.738281 C 2217.679688 1089.960938 2216.691406 1090.941406 2215.46875 1090.941406"/></g><g id="change2_14"><path d="M 2468.550781 1157.101562 L 2105.289062 1157.101562 C 2104.070312 1157.101562 2103.089844 1156.109375 2103.089844 1154.890625 C 2103.089844 1153.679688 2104.070312 1152.691406 2105.289062 1152.691406 L 2468.550781 1152.691406 C 2469.769531 1152.691406 2470.761719 1153.679688 2470.761719 1154.890625 C 2470.761719 1156.109375 2469.769531 1157.101562 2468.550781 1157.101562"/></g><g id="change2_15"><path d="M 2039.089844 1157.101562 L 1818.601562 1157.101562 C 1817.378906 1157.101562 1816.398438 1156.109375 1816.398438 1154.890625 C 1816.398438 1153.679688 1817.378906 1152.691406 1818.601562 1152.691406 L 2039.089844 1152.691406 C 2040.308594 1152.691406 2041.289062 1153.679688 2041.289062 1154.890625 C 2041.289062 1156.109375 2040.308594 1157.101562 2039.089844 1157.101562"/></g><g id="change2_16"><path d="M 2402.351562 1223.25 L 1818.601562 1223.25 C 1817.378906 1223.25 1816.398438 1222.269531 1816.398438 1221.050781 C 1816.398438 1219.828125 1817.378906 1218.839844 1818.601562 1218.839844 L 2402.351562 1218.839844 C 2403.570312 1218.839844 2404.550781 1219.828125 2404.550781 1221.050781 C 2404.550781 1222.269531 2403.570312 1223.25 2402.351562 1223.25"/></g><g id="change2_17"><path d="M 1158.21875 584.621094 C 1172.808594 562.710938 1184.839844 535.621094 1176.488281 510.660156 C 1167.671875 484.308594 1134.410156 469.269531 1108.78125 480.039062 C 1119.570312 461.261719 1128.328125 441.308594 1134.828125 420.648438 C 1064.679688 418.628906 992.519531 431.011719 932.523438 467.410156 C 872.527344 503.800781 826.339844 566.570312 820.773438 636.480469 C 818.460938 665.558594 823.574219 696.269531 840.914062 719.738281 C 859.128906 744.390625 888.652344 758.339844 918.402344 765.769531 C 957.132812 775.441406 999.835938 775.160156 1035.128906 756.511719 C 1058.949219 743.921875 1078.378906 721.949219 1086.789062 696.25 C 1088.929688 689.71875 1090.351562 682.941406 1090.890625 676.089844 C 1091.28125 671.148438 1088.769531 662.039062 1090.671875 657.679688 C 1092.941406 652.519531 1102.578125 647.359375 1106.828125 643.601562 C 1112.878906 638.230469 1118.71875 632.628906 1124.328125 626.800781 C 1136.851562 613.78125 1148.210938 599.648438 1158.21875 584.621094"/></g><g id="change2_18"><path d="M 1093.460938 586.46875 C 1092.898438 586.46875 1092.339844 586.261719 1091.910156 585.828125 C 1091.039062 584.980469 1091.039062 583.578125 1091.890625 582.71875 C 1106.671875 567.820312 1117.601562 549.308594 1123.519531 529.179688 C 1123.859375 528.011719 1125.078125 527.339844 1126.261719 527.691406 C 1127.421875 528.03125 1128.089844 529.261719 1127.75 530.421875 C 1121.628906 551.25 1110.308594 570.410156 1095.019531 585.820312 C 1094.589844 586.261719 1094.03125 586.46875 1093.460938 586.46875"/></g><g id="change3_3"><path fill="#ffffff" d="M 1087 966.011719 L 1047.761719 961.738281 L 1058.101562 827.851562 C 1058.101562 827.851562 1025.5 664.679688 899.910156 786.519531 L 876.902344 968.300781 L 839.976562 972.941406 C 839.976562 972.941406 854.945312 1057.730469 960.355469 1057.5 C 1049.890625 1057.300781 1088.570312 1027.121094 1087 966.011719"/></g><g id="change2_19"><path d="M 854.941406 973.269531 C 853.847656 973.269531 852.894531 972.460938 852.757812 971.339844 C 852.605469 970.128906 853.460938 969.03125 854.667969 968.878906 L 874.933594 966.328125 L 897.722656 786.25 C 897.785156 785.75 898.015625 785.289062 898.375 784.941406 C 937.128906 747.339844 971.230469 732.78125 999.746094 741.648438 C 1045.480469 755.878906 1059.691406 824.5 1060.269531 827.421875 C 1060.308594 827.609375 1060.320312 827.820312 1060.300781 828.019531 L 1050.121094 959.769531 L 1071.121094 962.058594 C 1072.328125 962.191406 1073.210938 963.28125 1073.070312 964.488281 C 1072.941406 965.699219 1071.859375 966.550781 1070.640625 966.441406 L 1047.519531 963.929688 C 1046.328125 963.800781 1045.46875 962.761719 1045.558594 961.570312 L 1055.878906 827.988281 C 1054.828125 823.121094 1040.21875 758.851562 998.425781 745.859375 C 971.699219 737.550781 939.265625 751.578125 902 787.570312 L 879.09375 968.578125 C 878.964844 969.578125 878.179688 970.371094 877.179688 970.488281 L 855.222656 973.25 C 855.125 973.261719 855.03125 973.269531 854.941406 973.269531"/></g><g id="change3_4"><path fill="#ffffff" d="M 958.054688 792.769531 C 976.871094 808.890625 999.273438 821.359375 1023.621094 825.96875 C 1047.96875 830.589844 1074.328125 826.828125 1094.988281 813.140625 C 1129.539062 790.21875 1142.078125 743.738281 1135.96875 702.75 C 1129.871094 661.761719 1108.550781 624.828125 1087.339844 589.21875 C 1087.339844 589.21875 1006.429688 651.191406 932.105469 661.191406 C 922.644531 685.289062 921.546875 708.808594 927.027344 731.859375 C 927.027344 731.859375 910.519531 716.878906 895.363281 726.769531 C 878.980469 737.460938 872.375 760.5 880.273438 778.378906 C 888.171875 796.269531 908.648438 807.261719 928.117188 805.328125 C 939.113281 804.25 949.203125 802.121094 958.054688 792.769531"/></g><g id="change2_20"><path d="M 958.054688 790.558594 C 958.566406 790.558594 959.078125 790.738281 959.488281 791.089844 C 979.578125 808.308594 1001.898438 819.609375 1024.039062 823.808594 C 1049.179688 828.558594 1074.601562 824.011719 1093.769531 811.300781 C 1129.058594 787.890625 1139.300781 740.078125 1133.789062 703.070312 C 1127.660156 661.898438 1105.210938 623.550781 1086.691406 592.449219 C 1073.839844 601.898438 1000.949219 653.621094 933.691406 663.199219 C 925.105469 685.71875 923.625 708.019531 929.171875 731.351562 C 929.394531 732.289062 928.980469 733.269531 928.148438 733.761719 C 927.320312 734.25 926.265625 734.148438 925.546875 733.5 C 924.921875 732.929688 910.101562 719.78125 896.566406 728.609375 C 881.21875 738.628906 874.8125 760.558594 882.289062 777.488281 C 889.683594 794.230469 908.859375 805.03125 927.898438 803.140625 C 939.679688 801.980469 948.566406 799.578125 956.453125 791.25 C 956.886719 790.800781 957.472656 790.558594 958.054688 790.558594 Z M 1043.550781 830.058594 C 1036.820312 830.058594 1030.011719 829.429688 1023.210938 828.140625 C 1000.898438 823.921875 978.449219 812.730469 958.183594 795.769531 C 948.730469 804.808594 937.859375 806.589844 928.335938 807.53125 C 907.445312 809.589844 886.394531 797.710938 878.253906 779.28125 C 869.941406 760.449219 877.074219 736.070312 894.15625 724.921875 C 905.378906 717.601562 917.238281 722.710938 923.671875 726.71875 C 919.417969 704.308594 921.558594 682.03125 930.054688 660.390625 C 930.347656 659.648438 931.019531 659.121094 931.8125 659.011719 C 1004.710938 649.199219 1085.191406 588.078125 1086 587.46875 C 1086.5 587.089844 1087.140625 586.941406 1087.75 587.050781 C 1088.371094 587.171875 1088.910156 587.550781 1089.230469 588.089844 C 1108.179688 619.890625 1131.75 659.460938 1138.148438 702.421875 C 1145.128906 749.269531 1128.671875 793.449219 1096.210938 814.96875 C 1081.289062 824.859375 1062.808594 830.058594 1043.550781 830.058594"/></g><g id="change2_21"><path d="M 942.476562 773.140625 C 942.3125 773.140625 942.144531 773.121094 941.980469 773.078125 C 932.335938 770.859375 923.15625 767.121094 914.695312 761.988281 C 913.65625 761.359375 913.324219 760 913.957031 758.960938 C 914.585938 757.921875 915.945312 757.589844 916.984375 758.21875 C 925.042969 763.109375 933.785156 766.660156 942.96875 768.789062 C 944.15625 769.058594 944.894531 770.238281 944.621094 771.429688 C 944.386719 772.449219 943.480469 773.140625 942.476562 773.140625"/></g><g id="change3_5"><path fill="#ffffff" d="M 613.226562 2026.5 L 586.527344 2162.800781 L 1477.699219 2162.980469 L 1349.660156 1707.25 L 613.226562 2026.5"/></g><g id="change4_1"><path fill="#5e7ce1" d="M 1336.109375 1382.128906 C 1336.109375 1382.128906 1676.609375 1433.898438 1959.371094 1166.738281 C 1891.871094 1128.140625 1850.421875 1058.980469 1828.378906 967.070312 C 1828.378906 967.070312 1713.160156 1079.230469 1603.109375 1079.289062 C 1507.601562 1079.339844 1301.101562 978.109375 1087.25 963.78125 C 1083.03125 977.289062 1076.980469 990.339844 1068.011719 1001.371094 C 1050.710938 1022.640625 1023.058594 1034.359375 996.535156 1038.570312 C 971.054688 1042.621094 944.265625 1041.238281 919.394531 1034.308594 C 897.027344 1028.078125 875.230469 1016.769531 858.699219 1000.300781 C 851.097656 992.730469 844.890625 984.109375 840.203125 974.761719 C 685.644531 987.039062 588.324219 1005.761719 506.671875 1105.371094 C 401.449219 1233.730469 313.757812 1475.210938 339.308594 1627.671875 C 364.859375 1780.128906 434.992188 1827.308594 524.507812 1856.671875 L 520.589844 1939.121094 C 516.25 2030.449219 606.65625 2096.558594 692.464844 2064.789062 L 1407.238281 1800.199219 C 1442.011719 1787.328125 1460.230469 1749.160156 1448.359375 1714.050781 L 1336.109375 1382.128906"/></g><g id="change2_22"><path d="M 1334.429688 1377.71875 C 1333.511719 1377.71875 1332.648438 1377.140625 1332.339844 1376.21875 L 1313.109375 1318.699219 C 1312.730469 1317.539062 1313.351562 1316.289062 1314.5 1315.898438 C 1315.671875 1315.511719 1316.910156 1316.140625 1317.289062 1317.300781 L 1336.519531 1374.820312 C 1336.910156 1375.96875 1336.28125 1377.21875 1335.128906 1377.609375 C 1334.898438 1377.691406 1334.660156 1377.71875 1334.429688 1377.71875"/></g><g id="change3_6"><path fill="#ffffff" d="M 1834.96875 964.421875 C 1929.769531 877.898438 2016.921875 781.011719 2126.058594 713.441406 C 2135.671875 707.488281 2145.871094 701.640625 2157.128906 700.691406 C 2168.398438 699.738281 2181 705.128906 2184.820312 715.769531 C 2188.691406 726.53125 2182.648438 738.171875 2176.230469 747.648438 C 2156.058594 777.398438 2126.589844 808.148438 2096.378906 827.648438 C 2096.378906 827.648438 2146.371094 835.308594 2143.800781 882.320312 C 2143.800781 882.320312 2173.300781 887.558594 2159.941406 944.398438 C 2159.941406 944.398438 2176.660156 988.898438 2136.808594 1013.789062 C 2108.148438 1031.679688 2089.289062 1024.578125 2089.289062 1024.578125 C 2089.289062 1024.578125 1993.460938 1144.421875 1931.019531 1185.5 C 1868.578125 1226.578125 1783.929688 1011 1834.96875 964.421875"/></g><g id="change2_23"><path d="M 1948.019531 1177.578125 C 1947.410156 1177.578125 1946.800781 1177.328125 1946.371094 1176.828125 C 1945.558594 1175.921875 1945.640625 1174.53125 1946.550781 1173.71875 C 2003.890625 1122.851562 2086.769531 1024.148438 2087.601562 1023.160156 C 2088.210938 1022.449219 2089.191406 1022.191406 2090.070312 1022.519531 C 2090.238281 1022.578125 2108.398438 1028.941406 2135.648438 1011.921875 C 2173.449219 988.308594 2158.53125 946.929688 2157.871094 945.179688 C 2157.71875 944.769531 2157.691406 944.320312 2157.789062 943.898438 C 2164.441406 915.609375 2160.078125 900.929688 2155.261719 893.589844 C 2150.109375 885.761719 2143.480469 884.511719 2143.421875 884.488281 C 2142.320312 884.300781 2141.539062 883.308594 2141.601562 882.199219 C 2144.03125 837.769531 2098.011719 830.128906 2096.050781 829.828125 C 2095.140625 829.691406 2094.421875 829.011719 2094.230469 828.109375 C 2094.039062 827.210938 2094.421875 826.289062 2095.191406 825.800781 C 2123.449219 807.558594 2153.058594 777.878906 2174.398438 746.410156 C 2179.761719 738.511719 2186.449219 726.828125 2182.738281 716.511719 C 2179.171875 706.570312 2166.988281 702.078125 2157.320312 702.890625 C 2146.609375 703.789062 2136.96875 709.28125 2127.21875 715.320312 C 2046.171875 765.5 1970.441406 838.148438 1897.199219 908.398438 C 1876.210938 928.539062 1856.378906 947.558594 1836.46875 966.03125 C 1835.570312 966.859375 1834.179688 966.808594 1833.351562 965.910156 C 1832.519531 965.019531 1832.578125 963.628906 1833.46875 962.800781 C 1853.359375 944.351562 1873.171875 925.339844 1894.148438 905.21875 C 1967.550781 834.800781 2043.449219 761.988281 2124.898438 711.570312 C 2134.710938 705.488281 2145.28125 699.480469 2156.949219 698.5 C 2168.550781 697.511719 2182.53125 702.878906 2186.890625 715.019531 C 2191.28125 727.230469 2183.949219 740.191406 2178.050781 748.878906 C 2157.46875 779.230469 2129.28125 807.960938 2101.871094 826.660156 C 2114.730469 830.191406 2147.140625 842.871094 2146.078125 880.679688 C 2148.929688 881.679688 2154.46875 884.371094 2158.941406 891.171875 C 2166.589844 902.789062 2167.691406 920.660156 2162.230469 944.289062 C 2164.121094 950.039062 2176.199219 991.789062 2137.980469 1015.660156 C 2113.03125 1031.238281 2095.238281 1028.449219 2090.039062 1027.109375 C 2080.691406 1038.199219 2003.75 1128.871094 1949.480469 1177.019531 C 1949.058594 1177.390625 1948.539062 1177.578125 1948.019531 1177.578125"/></g><g id="change2_24"><path d="M 2066.039062 991.140625 C 2059.199219 991.140625 2052.738281 989.210938 2047.621094 985.378906 C 2041.929688 981.121094 2038.261719 973.78125 2038.039062 966.230469 C 2037.851562 959.671875 2040.21875 953.980469 2044.699219 950.210938 C 2045.640625 949.421875 2047.03125 949.539062 2047.808594 950.46875 C 2048.589844 951.398438 2048.46875 952.800781 2047.539062 953.578125 C 2044.109375 956.46875 2042.300781 960.921875 2042.449219 966.109375 C 2042.628906 972.339844 2045.628906 978.378906 2050.269531 981.851562 C 2059.769531 988.96875 2073.390625 987.328125 2082.660156 982.550781 C 2093.078125 977.191406 2101.21875 967.761719 2108.460938 958.378906 C 2117.949219 946.089844 2129.609375 929.519531 2135.621094 910.410156 C 2137.71875 903.730469 2139 896.949219 2139.449219 890.261719 C 2139.53125 889.050781 2140.589844 888.140625 2141.789062 888.210938 C 2143.011719 888.289062 2143.929688 889.339844 2143.851562 890.558594 C 2143.378906 897.589844 2142.03125 904.710938 2139.820312 911.730469 C 2133.609375 931.511719 2121.660156 948.488281 2111.949219 961.078125 C 2104.398438 970.859375 2095.871094 980.710938 2084.679688 986.46875 C 2078.621094 989.589844 2072.179688 991.140625 2066.039062 991.140625"/></g><g id="change2_25"><path d="M 1978.25 966.121094 C 1969.769531 966.121094 1961.351562 962.679688 1957.410156 955 C 1956.851562 953.910156 1957.28125 952.578125 1958.371094 952.03125 C 1959.449219 951.46875 1960.78125 951.898438 1961.328125 952.980469 C 1965.851562 961.808594 1978.890625 963.628906 1988.21875 959.800781 C 1996.71875 956.308594 2003.578125 949.441406 2010.210938 942.789062 C 2011.371094 941.628906 2012.53125 940.46875 2013.691406 939.328125 C 2021.25 931.929688 2031.511719 923.328125 2043.910156 922.578125 C 2050.949219 922.171875 2057.621094 924.289062 2064.109375 926.351562 C 2071.03125 928.539062 2077.578125 930.621094 2084.21875 929.71875 C 2090.691406 928.851562 2096.460938 924.890625 2100.46875 918.578125 C 2105.53125 910.601562 2106.980469 900.269531 2104.25 891.621094 C 2098.28125 872.738281 2079.089844 862.46875 2068.171875 858.03125 C 2048.378906 849.980469 2026.769531 847.539062 2005.671875 850.988281 C 2004.480469 851.191406 2003.339844 850.371094 2003.140625 849.171875 C 2002.941406 847.96875 2003.761719 846.828125 2004.960938 846.628906 C 2026.859375 843.058594 2049.289062 845.589844 2069.839844 853.949219 C 2081.46875 858.679688 2101.949219 869.691406 2108.449219 890.300781 C 2111.570312 900.148438 2109.929688 911.890625 2104.191406 920.941406 C 2099.480469 928.371094 2092.601562 933.039062 2084.808594 934.089844 C 2077.179688 935.121094 2069.859375 932.800781 2062.78125 930.558594 C 2056.390625 928.53125 2050.351562 926.628906 2044.179688 926.988281 C 2033.230469 927.640625 2023.789062 935.609375 2016.78125 942.480469 C 2015.628906 943.609375 2014.480469 944.761719 2013.328125 945.910156 C 2006.390625 952.859375 1999.210938 960.050781 1989.898438 963.878906 C 1986.320312 965.351562 1982.28125 966.121094 1978.25 966.121094"/></g><g id="change2_26"><path d="M 2081.230469 1014.929688 C 2076.910156 1014.929688 2072.800781 1014.140625 2069.128906 1012.570312 C 2060.769531 1008.980469 2054.941406 1001.039062 2054.640625 992.808594 C 2054.589844 991.589844 2055.539062 990.558594 2056.761719 990.519531 C 2057.980469 990.441406 2059 991.421875 2059.039062 992.640625 C 2059.289062 999.199219 2064.039062 1005.578125 2070.871094 1008.511719 C 2076.949219 1011.128906 2084.53125 1011.199219 2092.199219 1008.710938 C 2099.640625 1006.300781 2106.378906 1001.851562 2111.988281 997.808594 C 2130.730469 984.320312 2143.558594 970.28125 2151.21875 954.898438 C 2151.761719 953.808594 2153.089844 953.371094 2154.179688 953.910156 C 2155.269531 954.449219 2155.710938 955.78125 2155.171875 956.871094 C 2147.179688 972.910156 2133.898438 987.46875 2114.570312 1001.378906 C 2108.679688 1005.628906 2101.578125 1010.308594 2093.558594 1012.910156 C 2089.390625 1014.261719 2085.21875 1014.929688 2081.230469 1014.929688"/></g><g id="change2_27"><path d="M 2088.078125 1024.628906 C 2087.511719 1024.628906 2086.949219 1024.410156 2086.519531 1023.980469 C 2083.878906 1021.339844 2081.78125 1018.261719 2080.289062 1014.828125 C 2079.800781 1013.710938 2080.308594 1012.410156 2081.429688 1011.929688 C 2082.550781 1011.441406 2083.851562 1011.949219 2084.328125 1013.070312 C 2085.578125 1015.949219 2087.421875 1018.640625 2089.640625 1020.859375 C 2090.5 1021.71875 2090.5 1023.121094 2089.640625 1023.980469 C 2089.210938 1024.410156 2088.640625 1024.628906 2088.078125 1024.628906"/></g><g id="change2_28"><path d="M 1347.011719 1134.238281 L 986.769531 1134.238281 C 981.621094 1134.238281 977.089844 1137.621094 975.625 1142.550781 L 838.757812 1603.328125 C 836.546875 1610.769531 842.132812 1618.25 849.902344 1618.25 L 1210.140625 1618.25 C 1215.289062 1618.25 1219.820312 1614.871094 1221.289062 1609.941406 L 1358.148438 1149.171875 C 1360.359375 1141.71875 1354.78125 1134.238281 1347.011719 1134.238281"/></g><g id="change3_7"><path fill="#ffffff" d="M 1162.019531 1493.101562 C 1177.5 1478.191406 1186.949219 1461.988281 1177.070312 1446.121094 C 1167.191406 1430.25 1142.328125 1426.550781 1128.25 1438.851562 C 1138.691406 1430.640625 1149.410156 1422.101562 1155.75 1410.441406 C 1162.101562 1398.78125 1162.960938 1383.070312 1154.210938 1373.089844 C 1146.519531 1364.308594 1133.328125 1362.121094 1121.941406 1364.648438 C 1116.308594 1365.898438 1111.011719 1368.109375 1105.910156 1370.789062 C 1110.859375 1363.359375 1112.21875 1352.878906 1108.019531 1344.761719 C 1100.871094 1330.910156 1083.398438 1324.988281 1067.898438 1326.738281 C 1052.398438 1328.480469 1038.339844 1336.308594 1024.761719 1343.980469 C 933.863281 1395.109375 754.25 1498.980469 754.25 1498.980469 C 749.527344 1524.808594 844.164062 1732.851562 879.972656 1767.609375 C 903.144531 1760.660156 1076.789062 1621.640625 1142.589844 1565.25 C 1153.621094 1555.789062 1164.96875 1545.78125 1170.578125 1532.371094 C 1176.179688 1518.96875 1174.101562 1501.179688 1162.019531 1493.101562"/></g><g id="change2_29"><path d="M 999.285156 1441.988281 C 998.542969 1441.988281 997.820312 1441.621094 997.402344 1440.941406 C 996.765625 1439.910156 997.089844 1438.550781 998.128906 1437.910156 C 1031.359375 1417.46875 1064.628906 1396.109375 1097.011719 1374.410156 C 1098.019531 1373.730469 1099.390625 1374.011719 1100.070312 1375.019531 C 1100.738281 1376.03125 1100.480469 1377.398438 1099.460938 1378.078125 C 1067.039062 1399.800781 1033.71875 1421.199219 1000.441406 1441.671875 C 1000.078125 1441.890625 999.679688 1441.988281 999.285156 1441.988281"/></g><g id="change2_30"><path d="M 1041.378906 1504.28125 C 1040.691406 1504.28125 1040.019531 1503.960938 1039.578125 1503.359375 C 1038.878906 1502.371094 1039.109375 1500.988281 1040.101562 1500.28125 L 1125.878906 1438.988281 C 1126.878906 1438.28125 1128.25 1438.511719 1128.960938 1439.5 C 1129.671875 1440.488281 1129.441406 1441.871094 1128.449219 1442.578125 L 1042.660156 1503.871094 C 1042.269531 1504.148438 1041.828125 1504.28125 1041.378906 1504.28125"/></g><g id="change2_31"><path d="M 1081.609375 1555.390625 C 1080.898438 1555.390625 1080.199219 1555.050781 1079.78125 1554.421875 C 1079.101562 1553.410156 1079.359375 1552.039062 1080.371094 1551.359375 C 1106.410156 1533.75 1131.941406 1514.699219 1156.238281 1494.738281 C 1157.191406 1493.96875 1158.578125 1494.109375 1159.351562 1495.050781 C 1160.121094 1495.988281 1159.980469 1497.378906 1159.039062 1498.148438 C 1134.628906 1518.191406 1108.988281 1537.320312 1082.839844 1555.011719 C 1082.460938 1555.261719 1082.03125 1555.390625 1081.609375 1555.390625"/></g><g id="change2_32"><path d="M 604.042969 1869.558594 C 579.769531 1869.558594 555.660156 1867.660156 532.132812 1863.839844 C 530.929688 1863.640625 530.113281 1862.511719 530.308594 1861.308594 C 530.503906 1860.101562 531.648438 1859.28125 532.839844 1859.480469 C 653.0625 1879.03125 778.28125 1848.859375 876.390625 1776.730469 C 877.375 1776.011719 878.753906 1776.21875 879.476562 1777.199219 C 880.195312 1778.191406 879.984375 1779.570312 879.007812 1780.289062 C 830.734375 1815.769531 773.636719 1842.140625 713.882812 1856.53125 C 677.898438 1865.199219 640.789062 1869.558594 604.042969 1869.558594"/></g><g id="change2_33"><path d="M 551.484375 1618.839844 C 550.722656 1618.839844 549.980469 1618.441406 549.570312 1617.730469 C 548.960938 1616.679688 549.324219 1615.328125 550.378906 1614.71875 L 743.132812 1503.421875 C 744.183594 1502.808594 745.535156 1503.171875 746.144531 1504.21875 C 746.757812 1505.28125 746.394531 1506.628906 745.339844 1507.238281 L 552.585938 1618.539062 C 552.238281 1618.738281 551.859375 1618.839844 551.484375 1618.839844"/></g><g id="change2_34"><path d="M 613.230469 1569.441406 C 613.082031 1569.441406 612.933594 1569.429688 612.78125 1569.398438 C 611.589844 1569.148438 610.820312 1567.988281 611.066406 1566.789062 L 662.953125 1313.878906 C 663.199219 1312.691406 664.351562 1311.921875 665.558594 1312.160156 C 666.75 1312.410156 667.519531 1313.570312 667.273438 1314.769531 L 615.386719 1567.679688 C 615.171875 1568.71875 614.253906 1569.441406 613.230469 1569.441406"/></g><g id="change2_35"><path d="M 1448.398438 2073.96875 C 1447.421875 2073.96875 1446.53125 2073.328125 1446.269531 2072.339844 L 1354.890625 1734.398438 C 1354.578125 1733.21875 1355.269531 1732.011719 1356.449219 1731.699219 C 1357.609375 1731.371094 1358.828125 1732.070312 1359.148438 1733.25 L 1450.53125 2071.191406 C 1450.839844 2072.371094 1450.148438 2073.578125 1448.96875 2073.890625 C 1448.78125 2073.949219 1448.589844 2073.96875 1448.398438 2073.96875"/></g><g id="change3_8"><path fill="#ffffff" d="M 2892.460938 1399.328125 L 2825.289062 1399.328125 C 2793.558594 1399.328125 2761.890625 1396.109375 2730.679688 1389.710938 L 2487.398438 1339.789062 C 2430.371094 1328.089844 2371.898438 1328.140625 2314.878906 1339.960938 L 2075.570312 1389.53125 C 2044.078125 1396.050781 2012.121094 1399.328125 1980.089844 1399.328125 L 1911.789062 1399.328125 C 1911.789062 1382.660156 1923.871094 1369.140625 1938.78125 1369.140625 L 1969.449219 1369.140625 C 2008.421875 1369.140625 2047.160156 1362.601562 2084.398438 1349.738281 L 2288.320312 1279.339844 C 2361.828125 1253.960938 2440.460938 1253.839844 2514.03125 1279 L 2721.890625 1350.078125 C 2758.820312 1362.71875 2797.21875 1369.140625 2835.839844 1369.140625 L 2865.46875 1369.140625 C 2880.378906 1369.140625 2892.460938 1382.660156 2892.460938 1399.328125"/></g><g id="change2_36"><path d="M 2401.53125 1328.820312 C 2430.371094 1328.820312 2459.210938 1331.761719 2487.851562 1337.628906 L 2731.128906 1387.550781 C 2762.109375 1393.910156 2793.789062 1397.128906 2825.289062 1397.128906 L 2890.179688 1397.128906 C 2889.179688 1382.71875 2878.480469 1371.339844 2865.46875 1371.339844 L 2835.839844 1371.339844 C 2796.949219 1371.339844 2758.371094 1364.890625 2721.171875 1352.171875 L 2513.308594 1281.089844 C 2439.921875 1255.988281 2362.371094 1256.109375 2289.039062 1281.421875 L 2085.121094 1351.828125 C 2047.621094 1364.78125 2008.699219 1371.339844 1969.449219 1371.339844 L 1938.78125 1371.339844 C 1925.769531 1371.339844 1915.070312 1382.71875 1914.070312 1397.128906 L 1980.089844 1397.128906 C 2011.890625 1397.128906 2043.859375 1393.851562 2075.121094 1387.371094 L 2314.429688 1337.800781 C 2343.320312 1331.808594 2372.429688 1328.820312 2401.53125 1328.820312 Z M 2892.460938 1401.539062 L 2825.289062 1401.539062 C 2793.488281 1401.539062 2761.511719 1398.289062 2730.238281 1391.871094 L 2486.960938 1341.949219 C 2430.011719 1330.261719 2372.261719 1330.320312 2315.320312 1342.121094 L 2076.019531 1391.691406 C 2044.460938 1398.230469 2012.191406 1401.539062 1980.089844 1401.539062 L 1911.789062 1401.539062 C 1910.570312 1401.539062 1909.578125 1400.550781 1909.578125 1399.328125 C 1909.578125 1381.46875 1922.679688 1366.929688 1938.78125 1366.929688 L 1969.449219 1366.929688 C 2008.210938 1366.929688 2046.640625 1360.449219 2083.679688 1347.660156 L 2287.601562 1277.261719 C 2361.871094 1251.621094 2440.410156 1251.5 2514.738281 1276.921875 L 2722.601562 1348 C 2759.339844 1360.558594 2797.441406 1366.929688 2835.839844 1366.929688 L 2865.46875 1366.929688 C 2881.570312 1366.929688 2894.671875 1381.46875 2894.671875 1399.328125 C 2894.671875 1400.550781 2893.679688 1401.539062 2892.460938 1401.539062"/></g><g id="change3_9"><path fill="#ffffff" d="M 2415.621094 2060.089844 L 2388.628906 2060.089844 L 2388.628906 1132.339844 C 2388.628906 1124.890625 2394.671875 1118.851562 2402.121094 1118.851562 C 2409.570312 1118.851562 2415.621094 1124.890625 2415.621094 1132.339844 L 2415.621094 2060.089844"/></g><g id="change2_37"><path d="M 2390.839844 2057.890625 L 2413.421875 2057.890625 L 2413.421875 1132.339844 C 2413.421875 1126.121094 2408.351562 1121.058594 2402.128906 1121.058594 C 2395.898438 1121.058594 2390.839844 1126.121094 2390.839844 1132.339844 Z M 2415.621094 2062.300781 L 2388.628906 2062.300781 C 2387.410156 2062.300781 2386.429688 2061.308594 2386.429688 2060.089844 L 2386.429688 1132.339844 C 2386.429688 1123.691406 2393.46875 1116.648438 2402.121094 1116.648438 C 2410.789062 1116.648438 2417.828125 1123.691406 2417.828125 1132.339844 L 2417.828125 2060.089844 C 2417.828125 2061.308594 2416.839844 2062.300781 2415.621094 2062.300781"/></g><g id="change3_10"><path fill="#ffffff" d="M 2645.039062 2133.109375 L 2159.210938 2133.109375 C 2172.828125 2079.5 2216.589844 2042.511719 2266.398438 2042.511719 L 2537.851562 2042.511719 C 2587.660156 2042.511719 2631.429688 2079.5 2645.039062 2133.109375"/></g><g id="change2_38"><path d="M 2162.070312 2130.898438 L 2642.179688 2130.898438 C 2628.078125 2080.011719 2585.550781 2044.710938 2537.851562 2044.710938 L 2266.398438 2044.710938 C 2218.699219 2044.710938 2176.171875 2080.011719 2162.070312 2130.898438 Z M 2645.039062 2135.308594 L 2159.210938 2135.308594 C 2158.53125 2135.308594 2157.878906 2135 2157.46875 2134.460938 C 2157.050781 2133.921875 2156.898438 2133.21875 2157.070312 2132.558594 C 2170.871094 2078.238281 2215.828125 2040.300781 2266.398438 2040.300781 L 2537.851562 2040.300781 C 2588.421875 2040.300781 2633.378906 2078.238281 2647.179688 2132.558594 C 2647.351562 2133.21875 2647.199219 2133.921875 2646.789062 2134.460938 C 2646.371094 2135 2645.730469 2135.308594 2645.039062 2135.308594"/></g><g id="change3_11"><path fill="#ffffff" d="M 2724.648438 2162.800781 L 2079.601562 2162.800781 L 2079.601562 2135.128906 C 2079.601562 2112.421875 2098.011719 2094 2120.71875 2094 L 2683.53125 2094 C 2706.238281 2094 2724.648438 2112.421875 2724.648438 2135.128906 L 2724.648438 2162.800781"/></g><g id="change2_39"><path d="M 2081.800781 2160.589844 L 2722.449219 2160.589844 L 2722.449219 2135.128906 C 2722.449219 2113.671875 2704.988281 2096.210938 2683.53125 2096.210938 L 2120.71875 2096.210938 C 2099.261719 2096.210938 2081.800781 2113.671875 2081.800781 2135.128906 Z M 2724.648438 2165 L 2079.601562 2165 C 2078.378906 2165 2077.390625 2164.011719 2077.390625 2162.789062 L 2077.390625 2135.128906 C 2077.390625 2111.238281 2096.828125 2091.800781 2120.71875 2091.800781 L 2683.53125 2091.800781 C 2707.421875 2091.800781 2726.859375 2111.238281 2726.859375 2135.128906 L 2726.859375 2162.789062 C 2726.859375 2164.011719 2725.871094 2165 2724.648438 2165"/></g><g id="change3_12"><path fill="#ffffff" d="M 3077.960938 1672.308594 C 3077.960938 1681.578125 3010.480469 1740.589844 2889.019531 1740.589844 C 2766.058594 1740.589844 2700.089844 1681.578125 2700.089844 1672.308594 C 2700.089844 1663.050781 2784.679688 1655.539062 2889.019531 1655.539062 C 2993.371094 1655.539062 3077.960938 1663.050781 3077.960938 1672.308594"/></g><g id="change2_40"><path d="M 3077.960938 1672.308594 L 3077.980469 1672.308594 Z M 2702.300781 1672.449219 C 2703.421875 1680.351562 2767.589844 1738.378906 2889.019531 1738.378906 C 3009.980469 1738.378906 3074.511719 1680.378906 3075.738281 1672.449219 C 3071.78125 1666.398438 3003.511719 1657.738281 2889.019531 1657.738281 C 2774.519531 1657.738281 2706.238281 1666.398438 2702.300781 1672.449219 Z M 2889.019531 1742.789062 C 2823.160156 1742.789062 2775.691406 1725.988281 2747.460938 1711.898438 C 2715.539062 1695.960938 2697.878906 1678.378906 2697.878906 1672.308594 C 2697.878906 1669.398438 2697.878906 1663.351562 2755.230469 1658.261719 C 2790.980469 1655.078125 2838.488281 1653.328125 2889.019531 1653.328125 C 2939.550781 1653.328125 2987.070312 1655.078125 3022.820312 1658.261719 C 3080.160156 1663.351562 3080.160156 1669.398438 3080.160156 1672.308594 C 3080.160156 1683.371094 3011.28125 1742.789062 2889.019531 1742.789062"/></g><g id="change3_13"><path fill="#ffffff" d="M 3077.960938 1672.308594 C 3077.960938 1681.578125 2993.371094 1689.089844 2889.019531 1689.089844 C 2784.679688 1689.089844 2700.089844 1681.578125 2700.089844 1672.308594 C 2700.089844 1663.050781 2784.679688 1655.539062 2889.019531 1655.539062 C 2993.371094 1655.539062 3077.960938 1663.050781 3077.960938 1672.308594"/></g><g id="change2_41"><path d="M 3075.800781 1672.539062 L 3075.820312 1672.539062 Z M 2702.398438 1672.308594 C 2707.25 1678.351562 2775.359375 1686.890625 2889.019531 1686.890625 C 3002.691406 1686.890625 3070.800781 1678.351562 3075.640625 1672.308594 C 3070.789062 1666.28125 3002.679688 1657.738281 2889.019531 1657.738281 C 2775.359375 1657.738281 2707.25 1666.28125 2702.398438 1672.308594 Z M 2889.019531 1691.300781 C 2838.488281 1691.300781 2790.980469 1689.550781 2755.230469 1686.371094 C 2697.878906 1681.28125 2697.878906 1675.21875 2697.878906 1672.308594 C 2697.878906 1669.398438 2697.878906 1663.351562 2755.230469 1658.261719 C 2790.980469 1655.078125 2838.488281 1653.328125 2889.019531 1653.328125 C 2939.550781 1653.328125 2987.070312 1655.078125 3022.820312 1658.261719 C 3080.160156 1663.351562 3080.160156 1669.398438 3080.160156 1672.308594 C 3080.160156 1675.21875 3080.160156 1681.28125 3022.820312 1686.371094 C 2987.070312 1689.550781 2939.550781 1691.300781 2889.019531 1691.300781"/></g><g id="change2_42"><path d="M 2711.621094 1647.019531 C 2711.171875 1647.019531 2710.710938 1646.878906 2710.320312 1646.589844 C 2709.328125 1645.871094 2709.128906 1644.488281 2709.851562 1643.511719 L 2890.691406 1398.03125 C 2891.101562 1397.460938 2891.761719 1397.128906 2892.460938 1397.128906 C 2893.160156 1397.128906 2893.820312 1397.460938 2894.230469 1398.019531 L 3073.28125 1640.148438 C 3074 1641.128906 3073.789062 1642.511719 3072.808594 1643.238281 C 3071.828125 1643.960938 3070.449219 1643.75 3069.730469 1642.769531 L 2892.46875 1403.050781 L 2713.398438 1646.128906 C 2712.96875 1646.710938 2712.300781 1647.019531 2711.621094 1647.019531"/></g><g id="change3_14"><path fill="#ffffff" d="M 2097.601562 1672.308594 C 2097.601562 1681.578125 2030.121094 1740.589844 1908.660156 1740.589844 C 1785.699219 1740.589844 1719.730469 1681.578125 1719.730469 1672.308594 C 1719.730469 1663.050781 1804.320312 1655.539062 1908.660156 1655.539062 C 2013.011719 1655.539062 2097.601562 1663.050781 2097.601562 1672.308594"/></g><g id="change2_43"><path d="M 2097.601562 1672.308594 L 2097.621094 1672.308594 Z M 1721.941406 1672.449219 C 1723.058594 1680.351562 1787.230469 1738.378906 1908.660156 1738.378906 C 2029.621094 1738.378906 2094.148438 1680.378906 2095.378906 1672.449219 C 2091.421875 1666.398438 2023.140625 1657.738281 1908.660156 1657.738281 C 1794.160156 1657.738281 1725.878906 1666.398438 1721.941406 1672.449219 Z M 1908.660156 1742.789062 C 1842.800781 1742.789062 1795.328125 1725.988281 1767.101562 1711.898438 C 1735.179688 1695.960938 1717.519531 1678.378906 1717.519531 1672.308594 C 1717.519531 1669.398438 1717.519531 1663.351562 1774.871094 1658.261719 C 1810.621094 1655.078125 1858.128906 1653.328125 1908.660156 1653.328125 C 1959.191406 1653.328125 2006.710938 1655.078125 2042.460938 1658.261719 C 2099.800781 1663.351562 2099.800781 1669.398438 2099.800781 1672.308594 C 2099.800781 1683.371094 2030.921875 1742.789062 1908.660156 1742.789062"/></g><g id="change3_15"><path fill="#ffffff" d="M 2097.601562 1672.308594 C 2097.601562 1681.578125 2013.011719 1689.089844 1908.660156 1689.089844 C 1804.320312 1689.089844 1719.730469 1681.578125 1719.730469 1672.308594 C 1719.730469 1663.050781 1804.320312 1655.539062 1908.660156 1655.539062 C 2013.011719 1655.539062 2097.601562 1663.050781 2097.601562 1672.308594"/></g><g id="change2_44"><path d="M 2095.441406 1672.539062 L 2095.460938 1672.539062 Z M 1722.039062 1672.308594 C 1726.890625 1678.351562 1795 1686.890625 1908.660156 1686.890625 C 2022.320312 1686.890625 2090.429688 1678.351562 2095.28125 1672.308594 C 2090.429688 1666.28125 2022.320312 1657.738281 1908.660156 1657.738281 C 1795 1657.738281 1726.890625 1666.28125 1722.039062 1672.308594 Z M 1908.660156 1691.300781 C 1858.128906 1691.300781 1810.621094 1689.550781 1774.871094 1686.371094 C 1717.519531 1681.28125 1717.519531 1675.21875 1717.519531 1672.308594 C 1717.519531 1669.398438 1717.519531 1663.351562 1774.871094 1658.261719 C 1810.621094 1655.078125 1858.128906 1653.328125 1908.660156 1653.328125 C 1959.191406 1653.328125 2006.710938 1655.078125 2042.460938 1658.261719 C 2099.800781 1663.351562 2099.800781 1669.398438 2099.800781 1672.308594 C 2099.800781 1675.21875 2099.800781 1681.28125 2042.460938 1686.371094 C 2006.710938 1689.550781 1959.191406 1691.300781 1908.660156 1691.300781"/></g><g id="change2_45"><path d="M 1731.261719 1647.019531 C 1730.808594 1647.019531 1730.351562 1646.878906 1729.960938 1646.589844 C 1728.96875 1645.871094 1728.761719 1644.488281 1729.488281 1643.511719 L 1910.328125 1398.03125 C 1910.738281 1397.460938 1911.398438 1397.128906 1912.101562 1397.128906 C 1912.800781 1397.128906 1913.460938 1397.460938 1913.871094 1398.019531 L 2092.921875 1640.148438 C 2093.640625 1641.128906 2093.429688 1642.511719 2092.460938 1643.238281 C 2091.46875 1643.960938 2090.089844 1643.75 2089.371094 1642.769531 L 1912.101562 1403.050781 L 1733.039062 1646.128906 C 1732.609375 1646.710938 1731.941406 1647.019531 1731.261719 1647.019531"/></g></g></svg>